<svg xmlns="http://www.w3.org/2000/svg" viewBox="0 0 456.05 281.92"><defs><style>.cls-1{fill:#fe7d56;}.cls-2{fill:#e0e0e0;}.cls-3{fill:#383838;stroke:#262424;stroke-miterlimit:10;stroke-width:3px;}.cls-4{fill:#6d6d6d;}.cls-5{font-size:16.81px;font-family:MyriadPro-Regular, Myriad Pro;}</style></defs><g id="Calque_2" data-name="Calque 2"><g id="Calque_2-2" data-name="Calque 2"><path class="cls-1" d="M149.25,117.7c1.63-.48,34.1.61,35.72.13-36.88.12-121.9-1.18-158.78-1.07L49.7,89.89c6.1-7,12.29-14,19.92-19.32,15.65-10.84,35.66-13.09,54.71-13,4.84,0,9.8.22,14.28,2s8.32,5.29,12.31,8.23c22.28,16.41,95,5.36,121.4-3Z"/><path class="cls-2" d="M90.44,115.84a62.09,62.09,0,0,0,18.25-18.31c1.08-1.61-1.52-3.11-2.59-1.51a58.63,58.63,0,0,1-17.17,17.23c-1.63,1-.13,3.62,1.51,2.59Z"/><path class="cls-2" d="M111.91,115.1q25.44-5.22,50.85-10.67c1.88-.41,1.09-3.3-.8-2.89q-25.4,5.44-50.85,10.67c-1.89.38-1.09,3.28.8,2.89Z"/><rect class="cls-3" x="1.5" y="114.55" width="258.47" height="165.88" rx="9.84"/><rect class="cls-4" x="24.55" y="183.04" width="37.15" height="28.89" rx="7.48"/><path class="cls-1" d="M401.29,0c-.94,11.7,6.66,22.13,13.31,31.8a286.13,286.13,0,0,1,41.45,91.31,315.89,315.89,0,0,0-167.82,45.51c-19.24,11.67-39.1,26-61.57,24.87-22.71-1.11-41.86-17.86-64.26-21.72-16.71-2.87-33.71,1.64-50,6.33-16,4.59-33.14,9.38-48.81,3.89s-26.76-26.24-16.48-39.28c5-6.34,13.28-8.94,21-11.2L199.53,93.2"/><path class="cls-2" d="M72.41,140.59c.89-1.6-.37-3.11-2-3.51a17,17,0,0,0-6.36.08c-3.58.52-7.37,1.14-10.62,2.81a10.77,10.77,0,0,0-5.9,8.15,10.25,10.25,0,0,0,.54,5c.72,1.86,2,3.33,3,5a56.58,56.58,0,0,1,2.21,5.34A12.59,12.59,0,0,0,66,171.06a12.92,12.92,0,0,0,9.08-5.12A29.12,29.12,0,0,0,78,160.68a19.34,19.34,0,0,0,2-5.76c.54-4.27-2.27-7-4.06-10.55-.63-1.25-.46-2.8-1.52-3.74-.71-.64-1.46-1.24-2.2-1.85-1.47-1.24-3.6.87-2.12,2.12l2.57,2.16L72.18,142c.2,2.59,1.51,4.65,2.89,6.77,1.53,2.37,2.41,4.49,1.57,7.33a27.17,27.17,0,0,1-3.93,8,9.85,9.85,0,0,1-6.93,4A9.53,9.53,0,0,1,58.84,166c-2.21-1.8-3-4.27-4-6.82a18.38,18.38,0,0,0-2-3.76,13.43,13.43,0,0,1-2.19-3.95,7.52,7.52,0,0,1,1.64-6.92c2-2.14,4.9-3,7.66-3.57,1.53-.33,3.09-.62,4.64-.85a20,20,0,0,1,3-.25c.32,0,.64,0,1,0s.7.06,1.05.11c.47.23.52-.07.17-.89C68.88,140.77,71.47,142.29,72.41,140.59Z"/><text class="cls-5" transform="translate(23.73 234.27)">0000 0000 0000 0000</text></g></g></svg>