<svg xmlns="http://www.w3.org/2000/svg" viewBox="0 0 297.88 224.95"><defs><style>.cls-1{fill:#fe7d56;}.cls-2{fill:#fff;}</style></defs><g id="Calque_2" data-name="Calque 2"><g id="Calque_2-2" data-name="Calque 2"><path class="cls-1" d="M292.24,106.28c-1.89-2-4.82-2.25-7.48-2.38-19.58-1-39.17-1.38-58.76-1.81l-45.38-1a9.51,9.51,0,0,1-2.36-.27l-3.61-.73A4.05,4.05,0,0,1,171.52,98c-2.35-5.33-2.05-12.22-6.24-16.07a17.67,17.67,0,0,0-4.4-2.67c-16.48-8.07-31.17-19.66-45.72-31.16a46.26,46.26,0,0,1-7.57-7c-4.41-5.5-6.22-12.75-8.45-19.57-1.73-5.32-3.85-10.63-7.42-14.78s-8.85-7-14.1-6.25C71.38,1.39,66.63,7,63.9,13a42.94,42.94,0,0,0,1.5,37.59V51q2,7.55,4.38,15c1,3.33,2.16,6.71,4.17,9.49.36.5.76,1,1.16,1.43l-5,2.76a22.76,22.76,0,0,1-6.9,2.89c-3.71.65-7.44-.62-11.15-1.29-6.94-1.23-14-.33-21,.58C21.69,83.1,10.92,85.28,6.37,94.07c-3.91,7.57-1.49,16.9,1,25.11-10.2,8.95-9.06,28.58,2.11,36.13-5.85,12.82,2.6,30.4,15.82,32.89-5,4.16-5.36,12.53-2.17,18.35s9,9.42,15,11.7c10.8,4.14,22.47,4.72,33.93,5.26,34.5,1.63,70.42,3,102-11.76,4-1.89,8.13-4.07,12.55-4.18,3.42-.08,6.75,1.09,10,2.19a277.88,277.88,0,0,0,84.53,14.55c2.25,0,4.65,0,6.54-1.31,2.24-1.55,3.2-4.5,3.74-7.28,1.88-9.71.46-19.76,1-29.66.47-9.29,2.62-18.37,3.85-27.58A138.68,138.68,0,0,0,294.62,112C294.19,109.94,293.66,107.77,292.24,106.28Z"/><path class="cls-2" d="M292.51,106a9.52,9.52,0,0,0-6-2.37c-3.15-.3-6.33-.33-9.48-.47q-10.23-.42-20.45-.71c-13.53-.4-27.06-.67-40.6-1l-20.39-.45-10.05-.22a43,43,0,0,1-7.36-.4c-1.91-.38-4.56-.45-5.89-2-1.17-1.38-1.52-3.82-1.95-5.59-1.07-4.44-1.92-9.34-5.94-12.12-2.37-1.63-5.19-2.71-7.72-4.07q-4-2.18-8-4.58c-5.32-3.28-10.45-6.83-15.48-10.53S123,53.74,117.92,49.77c-4.79-3.79-9.65-7.4-12.64-12.87C99.83,27,99.43,14.55,91.51,6,88.13,2.27,83.19-.45,78.07.06,73.47.53,69.67,3.55,67,7.12c-6.46,8.5-8.17,20.38-6.41,30.7a42,42,0,0,0,2.2,8c.43,1.13.92,2.24,1.45,3.33A14.14,14.14,0,0,1,65,50.74c.15.44.19,1,.31,1.48A181.55,181.55,0,0,0,71,70.62a22.56,22.56,0,0,0,3.9,6.6l.07-.59c-2.6,1.45-5.18,3-7.87,4.29A15.17,15.17,0,0,1,57.51,82c-2.82-.5-5.57-1.24-8.43-1.51a53.65,53.65,0,0,0-9.14,0,127.48,127.48,0,0,0-15.34,2,35.27,35.27,0,0,0-11.91,4.31A18.12,18.12,0,0,0,5,96.38c-1.6,4.75-1.16,9.92-.14,14.75.27,1.3.59,2.6.93,3.88l.54,1.92c.16.55.66,1.49.55,2s-1.35,1.51-1.8,2a19.53,19.53,0,0,0-1.56,2.17A24,24,0,0,0,.12,133.66c-.77,8.21,2.21,17.16,9.18,22l-.13-.51c-5.65,12.68,1.87,30.62,16,33.44l-.16-.63c-3.71,3.22-4.84,8.38-4.13,13.1.81,5.39,4.16,9.85,8.48,13,5.05,3.7,11.21,5.78,17.26,7.14A123.45,123.45,0,0,0,67,223.64c27.18,1.48,55.11,2.94,81.87-3a126.87,126.87,0,0,0,19.36-5.92c3.08-1.23,6.07-2.65,9.08-4,3.27-1.51,6.73-2.85,10.4-2.68s7.38,1.7,10.94,2.86,7,2.23,10.58,3.25q10.63,3,21.48,5.2a276.76,276.76,0,0,0,43,5.2,69.33,69.33,0,0,0,10.39.12,7.5,7.5,0,0,0,5.82-3.48c1.5-2.4,2-5.39,2.32-8.14a80.15,80.15,0,0,0,.56-11.17c-.05-7.5-.37-14.93.55-22.4s2.48-14.65,3.4-22a139.12,139.12,0,0,0-1.38-43.29c-.54-2.81-1-5.86-2.91-8.08-.32-.36-.85.17-.53.53,2.16,2.46,2.46,6.29,3,9.39q1,5.41,1.49,10.91a140.5,140.5,0,0,1,.42,21.12c-.8,14.21-4.88,28-5,42.31,0,7.1.53,14.23-.23,21.31-.33,3.09-.74,6.66-2.5,9.33-2,3.06-5.54,3.07-8.84,3a275.15,275.15,0,0,1-42.39-4,279.31,279.31,0,0,1-40.69-10.29c-3.11-1-6.26-2.21-9.56-2.37a20.77,20.77,0,0,0-9,2c-3,1.29-5.94,2.8-9,4.06s-6.07,2.39-9.17,3.39c-25.15,8.13-52,8-78.15,6.94-13.35-.55-27.25-.46-40.14-4.34-5.74-1.72-11.52-4.28-15.71-8.69a17.38,17.38,0,0,1-4.76-15.46,12,12,0,0,1,3.79-6.65.37.37,0,0,0-.17-.62c-13.65-2.72-21.06-20.07-15.6-32.34a.4.4,0,0,0-.13-.52c-11.14-7.68-12-26.58-2-35.54a.36.36,0,0,0,.09-.36c-1.93-6.36-4-13.3-2.68-20,1.15-6,5.15-10.43,10.58-13,5-2.35,10.57-3.21,16-3.91,7.53-1,15-1.69,22.49-.09,3.53.76,7.12,1.58,10.68.51,3.72-1.11,7.14-3.46,10.51-5.33a.39.39,0,0,0,.08-.59c-4-4.58-5.34-10.94-7-16.62-.9-3-1.74-6.09-2.58-9.14-.61-2.24-2-4.39-2.79-6.65-3.61-10.41-3.14-22.57,1.91-32.44,2.35-4.59,6-9.17,11.19-10.64,5.62-1.6,11.33,1.33,15,5.45,7.7,8.54,8.13,20.85,13.49,30.63,2.76,5,7.07,8.52,11.51,12,4.61,3.64,9.22,7.27,13.91,10.79,9.61,7.21,19.6,14,30.4,19.33,2.52,1.24,4.89,2.47,6.36,5a24.13,24.13,0,0,1,2.37,6.92c.7,3,1,7.51,4.33,8.82a26.13,26.13,0,0,0,4.9,1.09,47.77,47.77,0,0,0,7.66.36l19.82.43c26.1.57,52.22,1,78.29,2.22,2.76.13,5.71.25,7.8,2.29A.38.38,0,0,0,292.51,106Z"/><path class="cls-2" d="M75.1,3.8l3,11.31c1,3.62,1.67,7.45,3.06,10.94A20,20,0,0,0,87,33.65c2.61,2.13,6.17,1.46,9.29,1.39a.38.38,0,0,0,0-.75c-1.73,0-3.48.16-5.22.1a6.54,6.54,0,0,1-4.6-2.25,19.62,19.62,0,0,1-5.33-8.42C79.21,17.06,77.6,10.3,75.83,3.6a.38.38,0,0,0-.73.2Z"/><path class="cls-2" d="M75.24,78.83c1,9.84,2.93,20.43,9.54,28.17,4.89,5.72,11.77,9,18.17,12.7a48.6,48.6,0,0,1,7.41,5.24c2.71,2.31,5,5.06,5.65,8.65.09.48.81.27.73-.2-1-5.82-6.13-9.36-10.6-12.61-3.25-2.37-7.07-4.06-10.52-6.12A44.19,44.19,0,0,1,87,108.28a31.14,31.14,0,0,1-6.71-10.15C77.72,92,76.64,85.38,76,78.83c0-.47-.8-.48-.75,0Z"/><path class="cls-2" d="M10.74,118.92c11,2.2,22.06,4.4,33.25,5.64a158.5,158.5,0,0,0,16.59,1c5.11,0,10.41-.08,15.26,1.78a14.77,14.77,0,0,1,8.91,9.25A9.67,9.67,0,0,1,80.68,148c-4,2.55-9.2,3.29-13.77,4.25Q58.6,154,50.16,155.1a210.44,210.44,0,0,1-37.64,1.32c-.49,0-.48.72,0,.75A210.54,210.54,0,0,0,48,156.11q8.65-1,17.2-2.71c4.84-1,10.15-1.74,14.6-4,3.6-1.83,6.21-5.12,6.24-9.28a14.51,14.51,0,0,0-5-10.46c-3.5-3.18-8.33-4.26-12.92-4.62-5.63-.44-11.3-.17-16.94-.56-13.59-.94-27-3.61-40.31-6.28-.48-.09-.68.63-.2.73Z"/><path class="cls-2" d="M67.41,128.86c-1.51,6.39-1.93,14.49,2.26,20,.29.38.94,0,.65-.38-4.07-5.36-3.66-13.21-2.19-19.42.12-.47-.61-.67-.72-.2Z"/><path class="cls-2" d="M68.52,125.81,73,126a49.4,49.4,0,0,0,6.88.15c3-.28,4.92-3.35,6-5.85a14.34,14.34,0,0,0,1-4.43c.15-1.88,0-3.78.56-5.61a.37.37,0,0,0-.72-.2,18,18,0,0,0-.54,4.79,15,15,0,0,1-.81,4.59,13,13,0,0,1-2.55,4.28A5.65,5.65,0,0,1,81,125.13a5.94,5.94,0,0,1-2.58.34c-3.31,0-6.62-.24-9.92-.41-.48,0-.48.72,0,.75Z"/><path class="cls-2" d="M72.54,120.92a20.26,20.26,0,0,1,10.51-17.28c.43-.23,0-.88-.38-.65a21,21,0,0,0-10.88,17.93.38.38,0,0,0,.75,0Z"/><path class="cls-2" d="M64.72,153.55c3.77-.2,7.57-.54,11.35-.6,2.25,0,3.4,1.3,4.62,3a27.6,27.6,0,0,1,2.48,4.1A29.15,29.15,0,0,1,86,170.17a13.5,13.5,0,0,1-.2,5,6.5,6.5,0,0,1-3.53,3.81,85.87,85.87,0,0,1-9.75,4.22,44.89,44.89,0,0,1-10.62,2.76,103.45,103.45,0,0,1-11.14.25c-2.58,0-5.16.15-7.74.33-2.9.22-5.81.48-8.73.49-2.17,0-4.66-.25-6.76.41-.46.14-.27.87.2.72,2.1-.66,4.61-.36,6.78-.38,2.89,0,5.78-.29,8.67-.5s5.8-.33,8.72-.33a71,71,0,0,0,11.93-.51A52.93,52.93,0,0,0,74.9,183c1.76-.71,3.51-1.48,5.24-2.26a19.34,19.34,0,0,0,4.12-2.18c2.61-2,2.76-5.13,2.51-8.19a29.48,29.48,0,0,0-2.51-9.76,27.38,27.38,0,0,0-2.92-5.06,8,8,0,0,0-3.19-3.06c-1.88-.74-4.42-.18-6.39-.08l-7,.38c-.48,0-.48.77,0,.75Z"/><path class="cls-2" d="M70.65,177.59a35.62,35.62,0,0,1-3.05-8.67,36.63,36.63,0,0,1-.66-4.53c-.06-.78-.1-1.56-.11-2.35,0-.64-.25-2.1.22-2.58s-.19-.88-.53-.53a1.94,1.94,0,0,0-.43,1.44c0,.89,0,1.79,0,2.68a37.78,37.78,0,0,0,.57,5.08A36.67,36.67,0,0,0,70,178c.22.44.86.06.65-.37Z"/><path class="cls-2" d="M38.4,218.28l24-3.72c7.35-1.14,15-2,22-4.58,5.43-2,10.5-5.88,11.37-12s-3.72-10.58-9.14-12.28c-3.89-1.22-8.11-1.46-12.13-2-1.79-.23-3.35-.53-5,.21a30,30,0,0,1-5.25,1.58c-.47.1-.27.83.2.72a34.79,34.79,0,0,0,4.25-1.19c.4-.14.78-.31,1.17-.47a5.34,5.34,0,0,1,2.79-.34c3.56.36,7.19.78,10.71,1.44,5.91,1.1,12.41,4.79,11.74,11.74-.64,6.65-6.6,10.47-12.41,12.32-6.63,2.12-13.62,3-20.47,4.06l-24,3.72c-.47.07-.27.79.2.72Z"/><path class="cls-2" d="M82.92,205.08c-.54-2.75-1.08-5.5-1.6-8.26-.4-2.11-.82-4.76.72-6.54.32-.36-.21-.89-.53-.53-1.54,1.77-1.42,4.2-1.07,6.38.49,3.06,1.16,6.11,1.75,9.15.09.48.82.28.73-.2Z"/><path class="cls-2" d="M80.35,99.75c-1.37-1-3.07-1-4.71-1.18L68.71,98,55.33,97,42,95.93,35,95.38c-.49,0-1,0-1.49-.12a2.71,2.71,0,0,1-1-.24c-.44-.66-.36-1.12.22-1.38a27.69,27.69,0,0,1,2.55-1.43.38.38,0,0,0-.38-.65c-1,.57-3.61,1.4-3.56,2.92C31.44,95.81,33,96,34,96.05c5.19.45,10.4.82,15.6,1.23L65,98.48l7.68.61c2.27.17,5.4-.13,7.3,1.31.38.29.76-.36.38-.65Z"/></g></g></svg>